<?xml version="1.0" encoding="UTF-8"?>
<svg width="87px" height="31px" viewBox="0 0 87 31" version="1.1" xmlns="http://www.w3.org/2000/svg" xmlns:xlink="http://www.w3.org/1999/xlink">
    <!-- Generator: Sketch 49.3 (51167) - http://www.bohemiancoding.com/sketch -->
    <title>logo</title>
    <desc>Created with Sketch.</desc>
    <defs>
        <polygon id="path-1" points="26.3291093 0.20917757 0 0.20917757 1.84827679e-15 30.7948809 26.3291093 30.7948809 26.3291093 0.20917757"></polygon>
    </defs>
    <g id="Page-2" stroke="none" stroke-width="1" fill="none" fill-rule="evenodd">
        <g id="main_1075+_real" transform="translate(-70.000000, -22.000000)">
            <g id="logo" transform="translate(70.000000, 22.000000)">
                <path d="M86.5185418,25.3594252 C86.4481271,25.3594252 86.4193211,25.4364906 86.3320301,25.5720794 C86.2450301,25.7079579 86.1958562,25.9162663 85.4332241,27.0006868 C84.67001,28.0851074 82.8581405,29.7278177 81.5516856,29.7498364 C80.842592,29.7617149 80.3406689,29.3775467 80.1815084,28.6871448 C80.098291,28.3261541 80.078214,27.924313 80.1474649,27.5670887 C80.4500736,26.0069485 80.794,24.4563691 81.1259967,22.9028925 C81.6287926,20.5489205 82.1458462,18.1981354 82.6335117,15.8403971 C82.8662876,14.7142569 82.7999465,13.5808738 82.3969532,12.4755934 C81.9072508,11.1330326 80.9691639,10.1905747 79.6263378,9.72296722 C78.1039833,9.1927803 76.5662074,9.29707937 75.0985552,9.81046255 C72.732388,10.6381915 70.9595084,12.1916682 69.7214314,14.3486308 C69.6693478,14.4401822 69.5936957,14.517827 69.5288094,14.6021354 C69.5014582,14.5899672 69.474107,14.5780887 69.4464649,14.5662102 C69.7455819,13.0020139 70.044699,11.4383971 70.3557458,9.81191115 C69.1860468,9.81191115 68.0986923,9.80901395 67.0119197,9.81191115 C66.7919465,9.81249058 66.7491739,9.96864946 66.709893,10.1532009 C66.5140702,11.0721915 66.2999164,11.9862569 66.100311,12.9043784 C65.1398194,17.3257896 64.1828194,21.7477803 63.2234916,26.1694812 C62.9415418,27.4688738 62.6563913,28.7676868 62.35,30.170799 L63.7065017,30.170799 C64.3469264,30.170799 64.9876421,30.1734065 65.6280669,30.1699298 C66.0409532,30.1676121 66.0406622,30.163556 66.1363913,29.7790981 C66.1567592,29.696528 66.1803278,29.6145373 66.1983679,29.5310981 C66.5527692,27.9133037 66.9083344,26.2955093 67.2601171,24.6774252 C67.6962809,22.6748831 68.1365184,20.6737896 68.5619164,18.6689298 C68.9154448,17.0027523 69.4220234,15.4081354 70.392699,13.9943037 C71.1925753,12.8296308 72.1489933,11.8393691 73.3728127,11.1144906 C74.4054649,10.5026027 75.5070769,10.1369766 76.7480635,10.2180981 C78.0743043,10.3047242 78.8744716,10.9704999 79.1843545,12.2577242 C79.392689,13.1219579 79.3091806,13.9801074 79.1645686,14.8211635 C78.9681639,15.9661354 78.7054181,17.09807 78.4569298,18.2320326 C77.9116522,20.7172476 77.3585184,23.2001448 76.8059666,25.6833317 C76.637204,26.4421074 76.6072341,27.2095747 76.7431171,27.9837055 C76.9235184,29.0110513 77.4815987,29.7785186 78.4482007,30.2142569 C79.5893846,30.728799 80.5303813,30.7328551 81.8906656,30.3240607 C83.2509498,29.9152663 84.5917391,28.8632943 85.4349699,27.7339672 C86.0282575,26.9398457 86.4303779,26.1833878 86.6026321,25.7656121 C86.7321137,25.5179018 86.6186355,25.3594252 86.5185418,25.3594252" id="Fill-1" fill="#000000"></path>
                <path d="M40.0625331,25.259659 C39.9918274,25.259659 39.9633124,25.3367245 39.8760214,25.4723132 C39.7890214,25.6081917 39.7398475,25.8165002 38.9769244,26.9009207 C38.2140013,27.9853413 37.2174294,29.0575936 35.809717,29.4898553 C34.9653224,29.7488646 34.099396,29.8569301 33.2125197,29.5628646 C32.571513,29.3499207 32.136513,28.9498179 31.914503,28.3022946 C31.663396,27.5690142 31.6805632,26.8339955 31.8074261,26.1053506 C31.9654227,25.1970796 32.1627003,24.2963413 32.359396,23.3961824 C32.7821752,21.4620142 33.2218308,19.5316123 33.6434461,17.5968646 C34.1523525,15.2625936 34.640018,12.9596123 35.1448508,10.6241824 C35.249018,10.1429581 35.2769512,10.1397712 35.7555966,10.1397712 L41.5194194,10.1397712 C41.7324093,10.1397712 41.9451083,10.0372104 41.9451083,9.71214502 C41.7158241,9.71214502 35.3395097,9.71098614 35.3395097,9.71098614 C35.3395097,9.71098614 36.3241518,5.16035997 36.738493,2.90344408 C36.6165766,2.89446277 36.5601284,2.87389268 36.5176468,2.88924782 C35.4561886,3.26617306 34.3982221,3.65178988 33.335018,4.0240796 C33.0967137,4.10780857 32.9966201,4.2662852 32.9410448,4.49835063 C32.668406,5.64361231 32.387911,6.78713567 32.1042154,7.92950016 C31.9578575,8.51965904 31.7992789,9.106631 31.6415732,9.71243474 L31.0212254,9.71243474 C30.2597572,9.71243474 30.0799378,9.7118553 29.3184695,9.71272446 C29.0894762,9.71301418 28.8348776,9.87554689 28.8348776,10.131659 L31.5423525,10.131659 C31.5132555,10.301145 30.8105632,13.4880609 30.5038809,14.9062385 C29.8689846,17.8416777 29.2239043,20.7745095 28.608212,23.7145843 C28.4100615,24.6619674 28.1705933,25.607902 28.3236435,26.6112011 C28.5584562,28.149902 29.3414562,29.2832852 30.7707003,29.9638366 C32.0602789,30.5780422 33.4144528,30.5765936 34.7427304,30.3523506 C36.5321953,30.0507525 37.917503,29.0552759 38.9789612,27.6342011 C39.5722488,26.8400796 39.9743692,26.0836217 40.1466234,25.665846 C40.276105,25.4181357 40.1626267,25.259659 40.0625331,25.259659" id="Fill-3" fill="#000000"></path>
                <path d="M61.321915,9.76992523 L46.3750822,9.76992523 C46.174022,9.76992523 46.0270822,9.84785981 45.9578314,10.0524019 C45.816711,10.4710467 45.6610421,10.8844766 45.5181759,11.3025421 C45.3761826,11.7171308 45.2432093,12.1351963 45.0776474,12.6395981 L58.5123097,12.6395981 C58.112808,13.0402804 41.1056173,29.552271 40.8533464,29.8040374 C40.6851658,29.9723645 40.6796374,30.1218598 40.954022,30.2426729 C41.2019284,30.0074206 41.4492528,29.7768037 41.6919217,29.5415514 C42.4475705,28.8079813 43.2087478,28.0804953 43.951303,27.3341776 C44.1616742,27.1226822 44.3737913,27.0728505 44.6464301,27.1768598 C45.0369117,27.325486 45.439614,27.4474579 45.81642,27.6267944 C46.7629451,28.0781776 47.6928849,28.5660654 48.6388281,29.0191869 C50.0101692,29.6759813 51.3762729,30.3545047 52.8965906,30.5778785 C54.2926642,30.783 55.6325806,30.6514673 56.8447612,29.9477383 C58.6801993,28.8818598 59.4664,27.768757 59.8949986,25.7760654 C60.0087679,25.2458785 59.9197311,25.2363178 59.7917043,25.2447196 C59.7384568,25.2481963 59.6281792,25.5645701 59.591808,25.6792991 C58.9892093,27.5815981 57.5384334,28.3632617 55.5499451,28.2186916 C54.3022662,28.1280093 53.144206,27.7183458 52.0172796,27.1655607 C50.4795036,26.412 48.9277612,25.6874112 47.3812561,24.952972 C47.1816508,24.8582336 46.976226,24.7776916 46.6954401,24.6568785 C51.7460956,19.7498972 61.4452862,10.330243 61.6064836,10.1697383 C61.8855237,9.8918972 61.6233598,9.76992523 61.321915,9.76992523" id="Fill-5" fill="#000000"></path>
                <mask id="mask-2" fill="white">
                    <use xlink:href="#path-1"></use>
                </mask>
                <g id="Clip-9"></g>
                <path d="M12.4658337,30.7893095 C12.4658337,30.7893095 16.0805527,30.9886366 19.9417233,29.0437488 C23.3286129,27.3373002 24.2664089,24.9080011 24.2664089,24.9080011 C24.391235,24.7715432 24.2829942,24.6846273 24.2061781,24.6362441 C24.1293621,24.5875712 23.9777668,24.7558983 23.9777668,24.7558983 C23.9777668,24.7558983 23.0318236,26.7879918 19.6362049,28.6462535 C16.889449,30.1493189 12.4658337,30.0786273 12.4658337,30.0786273 C9.08330857,29.8966834 7.39044569,28.6274217 5.95538215,26.3658703 C5.05657613,24.9491413 4.60382696,23.3869731 4.40363967,21.7642535 C4.13449251,19.5800572 4.10626843,17.401945 4.42022495,15.2290478 C4.75571325,12.9078142 5.37053265,10.6888516 6.41336877,8.60373944 C7.37211459,6.68637495 8.56538215,4.95153383 10.2090711,3.54987028 C12.6962818,1.42912261 15.6743587,0.577636633 19.1136229,1.07016 C20.5783654,1.27991701 21.8900577,1.84892635 23.047827,2.74068336 C24.4389541,3.81177682 25.338342,5.21459925 25.6898337,6.92046841 C25.7611213,7.2672628 25.8094223,7.61782355 25.8760544,7.96519738 C25.9074791,8.13033757 25.9808035,8.30880486 26.1836096,8.23956187 C26.2656631,8.21174878 26.3427701,8.01792635 26.3270577,7.91015065 C26.2560611,7.42139364 26.1853554,6.92800112 26.0520912,6.45112261 C25.5495862,4.65399177 24.5119875,3.20713196 22.9669373,2.1035899 C20.8009574,0.556487101 18.1435293,-0.0484474788 15.072342,0.30877682 C12.0011547,0.666290839 9.52878348,1.96944972 7.94357947,3.01012261 C6.21056275,4.14727215 4.72778014,5.55791701 3.49115806,7.22525346 C1.97404101,9.27096374 0.945462413,11.5472908 0.385054386,14.0414871 C-0.0333603297,15.902646 -0.0947549786,17.7933563 0.123472446,19.7147768 C0.273321945,21.0335806 0.583204888,22.3008142 1.09996743,23.5271974 C2.0243788,25.7200852 3.44867646,27.5180852 5.4714992,28.8235619 C7.57433867,30.1800292 9.71558616,30.7884404 12.4114223,30.7893095 L12.4658337,30.7893095 Z" id="Fill-8" fill="#000000" mask="url(#mask-2)"></path>
            </g>
        </g>
    </g>
</svg>