<svg width="87" height="31" xmlns="http://www.w3.org/2000/svg" xmlns:xlink="http://www.w3.org/1999/xlink"><defs><path id="a" d="M26.33.21H0v30.585h26.33V.209z"/></defs><g fill="none" fill-rule="evenodd"><path d="M86.519 25.36c-.07 0-.1.076-.187.212s-.136.344-.899 1.429c-.763 1.084-2.575 2.727-3.881 2.749-.71.012-1.211-.372-1.37-1.063a2.777 2.777 0 0 1-.035-1.12c.303-1.56.647-3.11.979-4.664.503-2.354 1.02-4.705 1.508-7.063a6.085 6.085 0 0 0-.237-3.364c-.49-1.343-1.428-2.285-2.77-2.753-1.523-.53-3.06-.426-4.528.087-2.367.828-4.14 2.382-5.378 4.539-.052.091-.127.169-.192.253a7.046 7.046 0 0 0-.083-.036l.91-4.754c-1.17 0-2.257-.003-3.344 0-.22 0-.263.157-.302.341-.196.92-.41 1.833-.61 2.751-.96 4.422-1.917 8.844-2.877 13.265-.281 1.3-.567 2.599-.873 4.002h1.357c.64 0 1.28.002 1.921-.001.413-.002.413-.006.508-.39.02-.083.044-.165.062-.249.355-1.618.71-3.235 1.062-4.854.436-2.002.877-4.003 1.302-6.008.353-1.666.86-3.26 1.83-4.675.8-1.164 1.757-2.155 2.98-2.88 1.033-.611 2.135-.977 3.376-.896 1.326.087 2.126.752 2.436 2.04.209.864.125 1.722-.02 2.563-.196 1.145-.459 2.277-.707 3.411-.545 2.485-1.098 4.968-1.651 7.451a5.846 5.846 0 0 0-.063 2.3c.18 1.028.739 1.796 1.705 2.231 1.141.515 2.082.519 3.443.11 1.36-.409 2.7-1.46 3.544-2.59.593-.794.995-1.55 1.168-1.968.13-.248.016-.407-.084-.407m-46.456-.099c-.071 0-.1.077-.187.212-.087.136-.136.345-.9 1.429-.762 1.084-1.759 2.157-3.166 2.589-.845.259-1.71.367-2.597.073-.641-.213-1.076-.613-1.298-1.26-.252-.734-.234-1.469-.108-2.198.158-.908.356-1.809.552-2.709.423-1.934.863-3.864 1.284-5.8.51-2.333.997-4.636 1.502-6.972.104-.481.132-.484.61-.484h5.764c.213 0 .426-.103.426-.428l-6.605-.001s.984-4.55 1.398-6.808c-.121-.009-.178-.03-.22-.014-1.062.377-2.12.763-3.183 1.135-.238.084-.338.242-.394.474a363.805 363.805 0 0 1-.837 3.432c-.146.59-.305 1.177-.462 1.782h-2.324c-.229.001-.483.164-.483.42h2.707c-.029.17-.731 3.356-1.038 4.774-.635 2.936-1.28 5.869-1.896 8.809-.198.947-.437 1.893-.284 2.896.234 1.539 1.017 2.672 2.447 3.353 1.29.614 2.643.613 3.972.388 1.79-.301 3.175-1.297 4.236-2.718.593-.794.995-1.55 1.168-1.968.13-.248.016-.406-.084-.406M61.322 9.77H46.375c-.201 0-.348.078-.417.282-.141.419-.297.832-.44 1.25-.142.415-.275.833-.44 1.338h13.434c-.4.4-17.406 16.912-17.659 17.164-.168.168-.173.318.101.439.248-.236.495-.466.738-.701.756-.734 1.517-1.462 2.26-2.208.21-.211.422-.261.694-.157.39.148.794.27 1.17.45.947.451 1.877.94 2.823 1.392 1.371.657 2.737 1.336 4.258 1.559 1.396.205 2.736.073 3.948-.63 1.835-1.066 2.621-2.18 3.05-4.172.114-.53.025-.54-.103-.531-.054.003-.164.32-.2.434-.603 1.903-2.054 2.684-4.042 2.54-1.248-.091-2.406-.5-3.533-1.053-1.537-.754-3.09-1.479-4.636-2.213-.2-.095-.405-.175-.686-.296 5.051-4.907 14.75-14.327 14.911-14.487.28-.278.017-.4-.284-.4" fill="#000"/><mask id="b" fill="#fff"><use xlink:href="#a"/></mask><path d="M12.466 30.79s3.615.199 7.476-1.746c3.387-1.707 4.324-4.136 4.324-4.136.125-.136.017-.223-.06-.272-.077-.048-.228.12-.228.12s-.946 2.032-4.342 3.89c-2.747 1.503-7.17 1.433-7.17 1.433-3.383-.182-5.076-1.452-6.51-3.713-.9-1.417-1.352-2.979-1.552-4.602-.27-2.184-.298-4.362.016-6.535.336-2.321.95-4.54 1.993-6.625.96-1.918 2.152-3.652 3.796-5.054 2.487-2.12 5.465-2.972 8.905-2.48a8.284 8.284 0 0 1 3.934 1.67c1.391 1.072 2.29 2.475 2.642 4.18.071.347.12.698.186 1.045.031.165.105.344.308.275.082-.028.159-.222.143-.33-.07-.489-.142-.982-.275-1.459-.502-1.797-1.54-3.244-3.085-4.347C20.8.556 18.144-.048 15.072.309c-3.07.357-5.543 1.66-7.128 2.701A17.389 17.389 0 0 0 3.49 7.225a17.9 17.9 0 0 0-3.106 6.816c-.418 1.862-.48 3.752-.262 5.674.15 1.319.46 2.586.977 3.812.924 2.193 2.349 3.991 4.371 5.297 2.103 1.356 4.245 1.964 6.94 1.965h.055z" fill="#000" mask="url(#b)"/></g></svg>